<mxfile host="app.diagrams.net" modified="2023-07-13T07:57:35.870Z" agent="Mozilla/5.0 (Windows NT 10.0; Win64; x64; rv:109.0) Gecko/20100101 Firefox/115.0" version="21.6.2" etag="isdp8EL87ISya2452bJ7" type="github">
  <diagram name="Page-1" id="r2kam6Pc47SToNMyKIxc">
    <mxGraphModel>
      <root>
        <mxCell id="0" />
        <mxCell id="1" parent="0" />
      </root>
    </mxGraphModel>
  </diagram>
</mxfile>
